<svg xmlns="http://www.w3.org/2000/svg" id="DeliveryTruckWithCheckmark" viewBox="0 0 64 64">
  <path d="m27,13.93l-6.02,6.02-1.99-1.99c-.39-.39-1.02-.39-1.41,0s-.39,1.02,0,1.41l2.69,2.69c.2.2.45.29.71.29s.51-.1.71-.29l6.73-6.73c.39-.39.39-1.02,0-1.41s-1.02-.39-1.41,0Z" fill="#34a853" class="color000000 svgShape"></path>
  <circle cx="51" cy="51" r="2" fill="#34a853" class="color000000 svgShape"></circle>
  <circle cx="13" cy="51" r="2" fill="#34a853" class="color000000 svgShape"></circle>
  <path d="m60.8,39.6l-2.8-2.1v-7.5c0-2.21-1.79-4-4-4h-10v-5c0-2.21-1.79-4-4-4h-6.05c-.51-5.6-5.22-10-10.95-10s-10.44,4.4-10.95,10h-6.05c-2.21,0-4,1.79-4,4v5c0,.55.45,1,1,1s1-.45,1-1v-5c0-1.1.9-2,2-2h6.05c.51,5.6,5.22,10,10.95,10s10.44-4.4,10.95-10h6.05c1.1,0,2,.9,2,2v20H4v-7c0-.55-.45-1-1-1s-1,.45-1,1v15c0,2.21,1.79,4,4,4h1.35c.83,2.33,3.04,4,5.65,4s4.82-1.67,5.65-4h26.7c.83,2.33,3.04,4,5.65,4s4.82-1.67,5.65-4h2.35c1.65,0,3-1.35,3-3v-8c0-.93-.45-1.83-1.2-2.4Zm-37.8-12.6c-4.96,0-9-4.04-9-9s4.04-9,9-9,9,4.04,9,9-4.04,9-9,9Zm25,10v-5h8v5h-8Zm6-9c1.1,0,2,.9,2,2h-8c-1.1,0-2,.9-2,2v5c0,1.1.9,2,2,2h8.67l2.67,2h-15.33v-13h10ZM13,55c-2.21,0-4-1.79-4-4s1.79-4,4-4,4,1.79,4,4-1.79,4-4,4Zm0-10c-3.31,0-6,2.69-6,6h-1c-1.1,0-2-.9-2-2v-6h38v8h-23c0-3.31-2.69-6-6-6Zm38,10c-2.21,0-4-1.79-4-4s1.79-4,4-4,4,1.79,4,4-1.79,4-4,4Zm8-4h-2c0-3.31-2.69-6-6-6s-6,2.69-6,6h-1v-8h16v7c0,.55-.45,1-1,1Z" fill="#34a853" class="color000000 svgShape"></path>
  <circle cx="3" cy="30" r="1" fill="#34a853" class="color000000 svgShape"></circle>
</svg>
